<?xml version="1.0" encoding="UTF-8" standalone="no"?>
<!-- Created with Inkscape (http://www.inkscape.org/) -->

<svg
   xmlns:dc="http://purl.org/dc/elements/1.1/"
   xmlns:cc="http://creativecommons.org/ns#"
   xmlns:rdf="http://www.w3.org/1999/02/22-rdf-syntax-ns#"
   xmlns:svg="http://www.w3.org/2000/svg"
   xmlns="http://www.w3.org/2000/svg"
   xmlns:sodipodi="http://sodipodi.sourceforge.net/DTD/sodipodi-0.dtd"
   xmlns:inkscape="http://www.inkscape.org/namespaces/inkscape"
   id="svg3004"
   version="1.1"
   inkscape:version="0.48.4 r9939"
   width="208.025"
   height="75.475"
   xml:space="preserve"
   sodipodi:docname="logo_jetbrains.eps"><metadata
     id="metadata3010"><rdf:RDF><cc:Work
         rdf:about=""><dc:format>image/svg+xml</dc:format><dc:type
           rdf:resource="http://purl.org/dc/dcmitype/StillImage" /><dc:title></dc:title></cc:Work></rdf:RDF></metadata><defs
     id="defs3008" /><sodipodi:namedview
     pagecolor="#ffffff"
     bordercolor="#666666"
     borderopacity="1"
     objecttolerance="10"
     gridtolerance="10"
     guidetolerance="10"
     inkscape:pageopacity="0"
     inkscape:pageshadow="2"
     inkscape:window-width="640"
     inkscape:window-height="480"
     id="namedview3006"
     showgrid="false"
     inkscape:zoom="2.1006706"
     inkscape:cx="104.44654"
     inkscape:cy="34.960755"
     inkscape:window-x="75"
     inkscape:window-y="30"
     inkscape:window-maximized="0"
     inkscape:current-layer="g3012" /><g
     id="g3012"
     inkscape:groupmode="layer"
     inkscape:label="ink_ext_XXXXXX"
     transform="matrix(1.25,0,0,-1.25,0,75.475)"><g
       id="g3014"
       transform="scale(0.1,0.1)"><path
         d="m 1652.83,401.539 c -34.83,19.531 -48.87,26.641 -69.48,26.641 -19.06,0 -28.26,-9.758 -28.26,-24.875 0,-45.278 109.1,-32.856 109.1,-138.52 0,-57.695 -31.8,-92.344 -85.82,-92.344 -33.08,0 -48.69,14.219 -72.85,30.196 l 0,64.824 c 34.82,-28.418 48.87,-39.063 75.16,-39.063 20.25,0 28.26,10.645 28.26,28.418 0,49.707 -108.4,31.055 -108.4,140.278 0,52.394 21.68,87.023 77.83,87.023 27.02,0 43.89,-7.101 74.46,-23.976 l 0,-58.602"
         style="fill:#21518d;fill-opacity:1;fill-rule:nonzero;stroke:none"
         id="path3016" /><path
         d="m 810.203,481.402 c 49.754,0 71.61,-41.738 71.61,-87.023 0,-32.856 -13.508,-57.719 -41.231,-73.695 -7.715,-3.301 -11.703,-4.278 -17.457,-5.704 l 83.559,-136.367 -58.809,0 -78.719,123.418 0,-123.418 -53.133,0 0,302.789 94.18,0 z m -41.047,-124.312 24.699,0 c 17.059,0 33.411,8.887 33.411,34.625 0,23.094 -12.09,34.617 -34.828,34.617 l -23.282,0 0,-69.242"
         style="fill:#21518d;fill-opacity:1;fill-rule:nonzero;stroke:none"
         id="path3018" /><path
         d="m 1159.94,178.613 -57.41,0 -19.89,60.371 -94.179,0 -17.781,-60.371 -56.68,0 90.1,302.789 55.8,0 100.04,-302.789 z m -126.88,230.864 -28.26,-118.09 60.06,0 -31.8,118.09"
         style="fill:#21518d;fill-opacity:1;fill-rule:nonzero;stroke:none"
         id="path3020" /><path
         d="m 1177.66,178.613 53.1406,0 0,302.777 -53.1406,0 0,-302.777 z"
         style="fill:#21518d;fill-opacity:1;fill-rule:nonzero;stroke:none"
         id="path3022" /><path
         d="m 1477.44,178.613 -43.89,0 -111.78,194.453 0,-194.453 -53.12,0 0,302.789 48.14,0 107.51,-184.703 0,184.703 53.14,0 0,-302.789"
         style="fill:#21518d;fill-opacity:1;fill-rule:nonzero;stroke:none"
         id="path3024" /><path
         d="m 639.605,345.527 c 20.622,12.442 33.407,34.633 33.407,60.395 0,13.41 -2.625,28.058 -9.278,40.851 -19.492,-17.277 -41.019,-36.066 -47.507,-41.73 1.007,-3.484 1.527,-7.129 1.527,-10.664 0,-15.984 -8.531,-32.856 -30.57,-32.856 l -17.411,0 0,72.114 63.43,41.574 c -9.121,3.867 -20.039,6.18 -33.219,6.18 l -83.347,0 0,-302.778 88.847,0 c 71.086,0 86.008,54.16 86.008,88.809 0,35.508 -17.058,66.601 -51.887,78.105 m -50.281,-110.976 -19.551,0 0,71.035 28.071,0 c 21.332,0 36.961,-11.523 36.961,-33.731 0,-26.66 -12.078,-37.304 -45.481,-37.304"
         style="fill:#21518d;fill-opacity:1;fill-rule:nonzero;stroke:none"
         id="path3026" /><path
         d="m 715.168,516.977 c -3.332,2.082 -42.207,-22.098 -66.629,-39.129 l -8.984,-6.203 -62.508,-41.961 0,-46.516 c 13.402,9.133 24.191,17.707 31.941,25.449 l 46.758,40.059 c 0,0 23.391,21.015 35.66,33.293 l 4.563,4.265 c 3.422,3.086 5.761,5.176 5.761,8.059 0,0.156 -0.019,0.32 -0.042,0.477 -0.129,1.632 14.96,21.289 13.48,22.207"
         style="fill:#f57c14;fill-opacity:1;fill-rule:nonzero;stroke:none"
         id="path3028" /><path
         d="m 470.004,319.336 38.062,25.859 0,46.547 -34.121,-22.25 c 0,0 -30.39,-19.726 -41.019,-26.64 0.789,6.015 1.609,12.343 1.609,12.343 5.348,39.586 10.278,79.106 10.278,105.387 0,12.723 -1.161,22.352 -3.977,27.371 -2.004,3.567 -5.051,5.852 -8.809,6.633 -4.98,1.023 -10.793,-0.723 -16.351,-4.941 -17.446,-12.141 -26.102,-47.657 -26.102,-107.942 0,-19.496 0.949,-41.683 2.75,-66.39 -2.019,-1.817 -12.058,-10.86 -12.058,-10.86 0.148,0.117 -17.243,-15.176 -17.243,-15.176 -0.019,-0.019 -0.468,-0.586 -0.75,-0.957 -16.121,-14.238 -26.265,-22.226 -30.121,-23.75 -4.816,-1.894 -9.039,-2.304 -12.851,-1.953 21.894,16.153 39.742,50.684 39.742,71.231 0,2.363 -0.23,4.55 -0.727,6.484 -3.558,14.063 -10.66,24.258 -20.523,29.551 -9.668,5.156 -21.355,5.371 -34.762,0.586 l -5.226,-2.11 c -24.133,-10.937 -97.524,-52.168 -120.301,-65.039 2.691,32.188 15.91,178.981 19.609,256.41 2.391,50.012 0,18.997 0,28.704 0,36.375 -45.699,-0.02 -71,-25.313 -10.609,-10.617 -43.7771,-40.918 -31.7653,-63.984 12.9183,-24.824 26.5473,-16.524 33.6833,-59.239 12.555,-75.113 2.965,-152.105 2.992,-157.085 C 126.902,280.879 95.4258,266.074 95.4258,266.074 41.207,240.996 0.00390625,221.914 0.00390625,190.625 c 0,-4.883 0.99218775,-10.039 3.10156375,-15.586 C 48.0938,57.3633 109.426,-5.95703 133.594,0.449219 168.652,9.78516 170.082,55.8594 172.246,125.566 c 1.078,34.766 2.328,74.122 7.688,118.418 2.808,1.778 61.742,45.645 72.699,52.657 -5.25,-10.664 -5.211,-20.996 -5.211,-26.582 0,-13.848 1.992,-25.274 4.812,-31.153 4.731,-9.922 8.926,-17.324 19.758,-22.207 13.738,-6.543 25.684,-8.379 49.121,0.821 10.532,4.14 28.571,16.64 48.633,33.476 3.981,-6.855 21.359,-36.777 21.359,-36.777 l 15.93,-27.129 c 7.188,-12.774 18.578,-16.387 31.289,-9.902 9.641,4.843 16.024,9.082 17.922,15.292 0.399,1.29 0.57,2.579 0.57,3.848 0,4.18 -1.871,8.145 -3.652,11.328 -18.293,32.539 -19.512,60.899 -19.512,82.461 0,1.387 0.008,2.754 0.02,4.082 3.121,2.168 36.332,25.137 36.332,25.137 M 111.973,96.4844 C 97.582,108.145 90.7617,117.969 80.2344,143.457 62.4102,186.543 87.0938,199.863 131.793,225.215 126.477,179.336 122.754,85.6836 111.973,96.4844 M 290.055,280.566 c -0.629,16.153 -4,36.954 16.8,48.008 8.11,4.395 12.829,1.602 15.567,-1.152 5.473,-5.488 -6.785,-30.918 -32.367,-46.856"
         style="fill:#f57c14;fill-opacity:1;fill-rule:nonzero;stroke:none"
         id="path3030" /></g></g></svg>